<mxfile host="app.diagrams.net" modified="2020-09-09T13:16:22.141Z" agent="5.0 (Windows NT 10.0; Win64; x64) AppleWebKit/537.36 (KHTML, like Gecko) Chrome/84.0.4147.135 Safari/537.36 OPR/70.0.3728.154" etag="Fpb5djSD4hsoDcobUjfQ" version="13.6.9" type="github">
  <diagram id="7Qg04_EFretUuQEREuRb" name="Page-1">
    <mxGraphModel dx="998" dy="580" grid="1" gridSize="10" guides="1" tooltips="1" connect="1" arrows="1" fold="1" page="1" pageScale="1" pageWidth="827" pageHeight="1169" math="0" shadow="0">
      <root>
        <mxCell id="0" />
        <mxCell id="1" parent="0" />
        <mxCell id="K83bbWLx_HL1EzO2tl3d-1" value="Принятие заказа" style="rounded=1;whiteSpace=wrap;html=1;" vertex="1" parent="1">
          <mxGeometry x="80" y="80" width="120" height="40" as="geometry" />
        </mxCell>
        <mxCell id="K83bbWLx_HL1EzO2tl3d-2" value="Обработка заказа" style="rounded=1;whiteSpace=wrap;html=1;" vertex="1" parent="1">
          <mxGeometry x="240" y="160" width="120" height="40" as="geometry" />
        </mxCell>
        <mxCell id="K83bbWLx_HL1EzO2tl3d-3" value="Выделение места для помывки" style="rounded=1;whiteSpace=wrap;html=1;" vertex="1" parent="1">
          <mxGeometry x="400" y="240" width="120" height="40" as="geometry" />
        </mxCell>
        <mxCell id="K83bbWLx_HL1EzO2tl3d-5" value="Помывка" style="rounded=1;whiteSpace=wrap;html=1;" vertex="1" parent="1">
          <mxGeometry x="560" y="320" width="120" height="40" as="geometry" />
        </mxCell>
        <mxCell id="K83bbWLx_HL1EzO2tl3d-6" value="Оплата и выдача" style="rounded=1;whiteSpace=wrap;html=1;" vertex="1" parent="1">
          <mxGeometry x="720" y="400" width="120" height="40" as="geometry" />
        </mxCell>
        <mxCell id="K83bbWLx_HL1EzO2tl3d-12" value="" style="endArrow=classic;html=1;exitX=1;exitY=0.5;exitDx=0;exitDy=0;entryX=0;entryY=0.5;entryDx=0;entryDy=0;" edge="1" parent="1" source="K83bbWLx_HL1EzO2tl3d-1" target="K83bbWLx_HL1EzO2tl3d-2">
          <mxGeometry relative="1" as="geometry">
            <mxPoint x="490" y="290" as="sourcePoint" />
            <mxPoint x="590" y="290" as="targetPoint" />
          </mxGeometry>
        </mxCell>
        <mxCell id="K83bbWLx_HL1EzO2tl3d-13" value="Данные о типе мойки" style="edgeLabel;resizable=0;html=1;align=center;verticalAlign=middle;" connectable="0" vertex="1" parent="K83bbWLx_HL1EzO2tl3d-12">
          <mxGeometry relative="1" as="geometry" />
        </mxCell>
        <mxCell id="K83bbWLx_HL1EzO2tl3d-14" value="" style="endArrow=classic;html=1;exitX=1;exitY=0.5;exitDx=0;exitDy=0;entryX=0;entryY=0.5;entryDx=0;entryDy=0;" edge="1" parent="1" source="K83bbWLx_HL1EzO2tl3d-2" target="K83bbWLx_HL1EzO2tl3d-3">
          <mxGeometry relative="1" as="geometry">
            <mxPoint x="490" y="290" as="sourcePoint" />
            <mxPoint x="590" y="290" as="targetPoint" />
          </mxGeometry>
        </mxCell>
        <mxCell id="K83bbWLx_HL1EzO2tl3d-15" value="Данные о том какое место нужно" style="edgeLabel;resizable=0;html=1;align=center;verticalAlign=middle;" connectable="0" vertex="1" parent="K83bbWLx_HL1EzO2tl3d-14">
          <mxGeometry relative="1" as="geometry" />
        </mxCell>
        <mxCell id="K83bbWLx_HL1EzO2tl3d-16" value="" style="endArrow=classic;html=1;exitX=1;exitY=0.5;exitDx=0;exitDy=0;entryX=0;entryY=0.5;entryDx=0;entryDy=0;" edge="1" parent="1" source="K83bbWLx_HL1EzO2tl3d-3" target="K83bbWLx_HL1EzO2tl3d-5">
          <mxGeometry relative="1" as="geometry">
            <mxPoint x="490" y="290" as="sourcePoint" />
            <mxPoint x="590" y="290" as="targetPoint" />
          </mxGeometry>
        </mxCell>
        <mxCell id="K83bbWLx_HL1EzO2tl3d-17" value="Данные о том какое место заняли" style="edgeLabel;resizable=0;html=1;align=center;verticalAlign=middle;" connectable="0" vertex="1" parent="K83bbWLx_HL1EzO2tl3d-16">
          <mxGeometry relative="1" as="geometry" />
        </mxCell>
        <mxCell id="K83bbWLx_HL1EzO2tl3d-18" value="" style="endArrow=classic;html=1;exitX=1;exitY=0.5;exitDx=0;exitDy=0;entryX=0;entryY=0.5;entryDx=0;entryDy=0;" edge="1" parent="1" source="K83bbWLx_HL1EzO2tl3d-5" target="K83bbWLx_HL1EzO2tl3d-6">
          <mxGeometry relative="1" as="geometry">
            <mxPoint x="490" y="290" as="sourcePoint" />
            <mxPoint x="590" y="290" as="targetPoint" />
            <Array as="points">
              <mxPoint x="700" y="380" />
            </Array>
          </mxGeometry>
        </mxCell>
        <mxCell id="K83bbWLx_HL1EzO2tl3d-19" value="Машина" style="edgeLabel;resizable=0;html=1;align=center;verticalAlign=middle;" connectable="0" vertex="1" parent="K83bbWLx_HL1EzO2tl3d-18">
          <mxGeometry relative="1" as="geometry" />
        </mxCell>
      </root>
    </mxGraphModel>
  </diagram>
</mxfile>
